<?xml version="1.0" encoding="UTF-8"?>
<svg width="346px" height="144px" viewBox="0 0 346 144" version="1.1" xmlns="http://www.w3.org/2000/svg" xmlns:xlink="http://www.w3.org/1999/xlink">
    <!-- Generator: Sketch 50.2 (55047) - http://www.bohemiancoding.com/sketch -->
    <title>gig-logo-white</title>
    <desc>Created with Sketch.</desc>
    <defs></defs>
    <g id="Page-1" stroke="none" stroke-width="1" fill="none" fill-rule="evenodd">
        <g id="gig-logo-white" fill="#000000" fill-rule="nonzero">
            <path d="M154.758,142.615 L190.758,142.615 L190.758,52.615 L154.758,52.615 L154.758,142.615 Z M343.4172,53.7397 L343.3602,53.7797 L343.3642,53.7597 L293.8022,53.7597 L269.9252,89.7597 L305.0752,89.7597 C298.8852,100.6507 287.1822,107.9997 273.7592,107.9997 C253.8772,107.9997 237.7592,91.8827 237.7592,71.9997 C237.7592,52.1177 253.8772,35.9997 273.7592,35.9997 C283.5532,35.9997 292.4282,39.9157 298.9192,46.2617 L319.0602,16.0497 C306.6862,6.0187 290.9292,-0.0003 273.7592,-0.0003 C233.9952,-0.0003 201.7592,32.2357 201.7592,71.9997 C201.7592,111.7647 236.6632,143.9997 273.7592,143.9997 C313.5242,143.9997 345.7592,111.7647 345.7592,71.9997 C345.7592,65.6897 344.9422,59.5717 343.4172,53.7397 Z M141.6005,53.7797 L141.6045,53.7597 L92.0425,53.7597 L68.1665,89.7597 L103.3155,89.7597 C97.1265,100.6507 85.4235,107.9997 72.0005,107.9997 C52.1175,107.9997 36.0005,91.8827 36.0005,71.9997 C36.0005,52.1177 52.1175,35.9997 72.0005,35.9997 C81.7935,35.9997 90.6685,39.9157 97.1595,46.2617 L117.3005,16.0497 C104.9275,6.0187 89.1695,-0.0003 72.0005,-0.0003 C32.2355,-0.0003 0.0005,32.2357 0.0005,71.9997 C0.0005,111.7647 32.2355,143.9997 72.0005,143.9997 C111.7645,143.9997 144.0005,111.7647 144.0005,71.9997 C144.0005,65.6897 143.1825,59.5717 141.6575,53.7397 L141.6005,53.7797 Z M172.7583,7.2495 C162.8173,7.2495 154.7583,15.3085 154.7583,25.2495 C154.7583,35.1905 162.8173,43.2495 172.7583,43.2495 C182.6993,43.2495 190.7583,35.1905 190.7583,25.2495 C190.7583,15.3085 182.6993,7.2495 172.7583,7.2495 Z" id="GIG-Logo-Main"></path>
        </g>
    </g>
</svg>